<svg width="320" height="320" viewBox="0 0 320 320" fill="none" xmlns="http://www.w3.org/2000/svg">
  <rect x="40" y="100" width="240" height="120" rx="24" fill="#2563eb"/>
  <rect x="70" y="130" width="180" height="90" rx="16" fill="#fff"/>
  <rect x="110" y="170" width="100" height="40" rx="8" fill="#facc15"/>
  <rect x="140" y="120" width="40" height="40" rx="8" fill="#22c55e"/>
  <rect x="200" y="140" width="30" height="30" rx="6" fill="#f472b6"/>
  <rect x="90" y="140" width="30" height="30" rx="6" fill="#38bdf8"/>
  <g>
    <circle cx="80" cy="110" r="6" fill="#f472b6"/>
    <circle cx="240" cy="110" r="6" fill="#facc15"/>
    <circle cx="160" cy="90" r="8" fill="#22c55e"/>
    <circle cx="160" cy="230" r="5" fill="#2563eb"/>
    <circle cx="100" cy="210" r="4" fill="#f472b6"/>
    <circle cx="220" cy="210" r="4" fill="#38bdf8"/>
  </g>
  <g>
    <rect x="140" y="210" width="40" height="50" rx="10" fill="#2563eb"/>
    <rect x="150" y="220" width="20" height="30" rx="5" fill="#fff"/>
    <rect x="155" y="235" width="10" height="10" rx="2" fill="#facc15"/>
  </g>
  <g>
    <path d="M60 100 L160 40 L260 100" stroke="#2563eb" stroke-width="8" fill="none"/>
    <circle cx="160" cy="40" r="10" fill="#facc15" stroke="#2563eb" stroke-width="4"/>
  </g>
  <g>
    <path d="M160 40 L160 90" stroke="#2563eb" stroke-width="4" stroke-dasharray="6,4"/>
  </g>
</svg>